<?xml version="1.0" standalone="no"?>
<!DOCTYPE svg PUBLIC "-//W3C//DTD SVG 1.1//EN" "http://www.w3.org/Graphics/SVG/1.1/DTD/svg11.dtd">
<svg xmlns="http://www.w3.org/2000/svg" xmlns:xlink="http://www.w3.org/1999/xlink" version="1.1" id="Layer_1" x="0px" y="0px" width="277" height="64" viewBox="0 0 277 64" enable-background="new 0 0 277 64" xml:space="preserve">
<g>
	<path fill-rule="evenodd" clip-rule="evenodd" fill="#30302F" d="M269.66,51.33V34.82h-8.82v16.51c0,0.7-0.57,1.27-1.27,1.27h-4.8   c-0.7,0-1.27-0.57-1.27-1.27V12.67c0-0.7,0.57-1.27,1.27-1.27h4.8c0.7,0,1.27,0.57,1.27,1.27v15.52h8.82V12.67   c0-0.7,0.57-1.27,1.27-1.27h4.8c0.7,0,1.27,0.57,1.27,1.27v38.66c0,0.7-0.57,1.27-1.27,1.27h-4.8   C270.23,52.6,269.66,52.03,269.66,51.33z M233.21,52.6c-1.72,0-3.27-0.21-4.63-0.65c-1.4-0.45-2.6-1.12-3.59-2.03   c-1.01-0.93-1.77-2.07-2.26-3.44c-0.49-1.32-0.73-2.83-0.73-4.54V22.06c0-1.71,0.24-3.22,0.73-4.54c0.49-1.37,1.25-2.52,2.26-3.44   c0.99-0.91,2.19-1.59,3.59-2.03c1.36-0.44,2.91-0.65,4.63-0.65h6.73c0.7,0,1.27,0.57,1.27,1.27v4.19c0,0.71-0.57,1.28-1.27,1.28   h-7.28c-0.54,0-1.01,0.07-1.42,0.22c-0.38,0.14-0.73,0.36-1.02,0.64c-0.3,0.29-0.53,0.6-0.67,0.92c-0.13,0.32-0.2,0.68-0.2,1.09   v21.98c0,0.4,0.07,0.77,0.2,1.09c0.15,0.32,0.37,0.63,0.67,0.92l0.06,0.06c0.27,0.25,0.6,0.44,0.96,0.58   c0.41,0.15,0.88,0.22,1.42,0.22h7.28c0.7,0,1.27,0.57,1.27,1.27v4.2c0,0.7-0.57,1.27-1.27,1.27H233.21z M188.53,51.33V12.67   c0-0.7,0.57-1.27,1.27-1.27h18.09c0.7,0,1.27,0.57,1.27,1.27v4.03c0,0.7-0.57,1.27-1.27,1.27h-12.02v10.1h10.64   c0.71,0,1.27,0.57,1.27,1.28v4.03c0,0.7-0.56,1.27-1.27,1.27h-10.64v11.38h12.02c0.7,0,1.27,0.57,1.27,1.27v4.03   c0,0.7-0.57,1.27-1.27,1.27H189.8C189.1,52.6,188.53,52.03,188.53,51.33z M169.12,18.14v33.19c0,0.7-0.57,1.27-1.27,1.27h-4.8   c-0.7,0-1.27-0.57-1.27-1.27V18.14h-7.22c-0.71,0-1.27-0.57-1.27-1.28v-4.19c0-0.7,0.56-1.27,1.27-1.27h21.79   c0.7,0,1.27,0.57,1.27,1.27v4.19c0,0.71-0.57,1.28-1.27,1.28H169.12z M134.77,22.4l-2.91,13.74h5.85L134.77,22.4z M141.01,51.52   l-1.87-8.69h-8.71l-1.93,8.77c-0.13,0.6-0.66,1-1.24,1h-4.91c-0.7,0-1.27-0.57-1.27-1.27c0-0.14,0.02-0.27,0.06-0.4l9.3-38.56   c0.14-0.58,0.66-0.97,1.23-0.97h6.35c0.61,0,1.13,0.43,1.24,1.02l9.15,38.62c0.16,0.68-0.26,1.37-0.94,1.53   c-0.1,0.02-0.2,0.03-0.3,0.03h-4.91C141.62,52.6,141.1,52.13,141.01,51.52z M102.83,37.14c0-0.46-0.07-0.85-0.2-1.19   c-0.11-0.31-0.29-0.58-0.52-0.8c-0.24-0.24-0.52-0.41-0.84-0.53c-0.34-0.12-0.74-0.19-1.2-0.19h-4.96v11.48h4.91   c0.57,0,1.05-0.05,1.44-0.18c0.32-0.1,0.57-0.24,0.76-0.42c0.18-0.17,0.32-0.42,0.42-0.73l0.02-0.05c0.11-0.36,0.17-0.82,0.17-1.38   V37.14z M102.27,20.79c0-0.58-0.06-1.06-0.17-1.43c-0.1-0.3-0.23-0.53-0.4-0.7c-0.18-0.17-0.42-0.31-0.74-0.4   c-0.38-0.12-0.86-0.18-1.44-0.18h-4.41v9.66h4.41c0.42,0,0.8-0.06,1.12-0.18c0.31-0.12,0.6-0.31,0.87-0.57   c0.25-0.23,0.44-0.51,0.56-0.83c0.14-0.34,0.2-0.73,0.2-1.18V20.79z M110.17,42.6c0,1.71-0.21,3.19-0.61,4.45   c-0.44,1.34-1.1,2.42-1.99,3.23c-0.87,0.8-2.01,1.39-3.41,1.78c-1.32,0.36-2.86,0.54-4.64,0.54H89.04c-0.71,0-1.27-0.57-1.27-1.27   V12.67c0-0.7,0.56-1.27,1.27-1.27h9.82c3.58,0,6.26,0.76,8.02,2.3c0.94,0.81,1.63,1.87,2.09,3.19c0.43,1.25,0.65,2.72,0.65,4.39   v3.15c0,1.61-0.3,3.03-0.89,4.27c-0.35,0.75-0.81,1.43-1.37,2.03c0.73,0.62,1.31,1.36,1.76,2.21c0.7,1.32,1.05,2.89,1.05,4.69V42.6   z"/>
	<path fill-rule="evenodd" clip-rule="evenodd" fill="#4EC9CC" d="M53.03,57.4c1.76,0,2.88-0.41,3.34-1.23   c0.47-0.83,0.71-1.88,0.71-3.17V35.11h-9.23c-1.53,0-2.79,0.5-3.78,1.5c-1,1-1.5,2.26-1.5,3.78V53c0,1.52,0.35,2.64,1.06,3.34   c0.7,0.71,1.81,1.06,3.34,1.06H53.03z M15.24,57.4c-1.75,0-2.87-0.41-3.34-1.23c-0.46-0.83-0.7-1.88-0.7-3.17V35.11h9.23   c1.52,0,2.79,0.5,3.78,1.5c1,1,1.5,2.26,1.5,3.78V53c0,1.52-0.36,2.64-1.06,3.34c-0.7,0.71-1.82,1.06-3.34,1.06H15.24z M0,64h4.17   c0.76,0,1.59-0.23,2.5-0.7c0.91-0.47,1.69-1.12,2.33-1.94c1.35,1.76,3.14,2.64,5.37,2.64h6.06c4.46,0,7.69-0.9,9.72-2.68   c2.02-1.79,3.03-4.86,3.03-9.2v-9.97c0-9.09-4.28-13.64-12.84-13.64H11.2V14.7c0-1.82,0.56-3.22,1.67-4.22   c1.11-1,2.76-1.5,4.92-1.5h4.04v2.38h9.05c1.26,0,2.3-1.03,2.3-2.3V2.3c0-1.27-1.04-2.3-2.3-2.3h-9.05v2.38h-3.16   c-5.1,0-8.86,1.11-11.29,3.34c-2.44,2.23-3.65,5.81-3.65,10.74V55.2c0,0.88-0.34,1.54-1.01,1.98C2.14,57.55,1.24,57.77,0,57.82V64z    M68.28,64h-4.17c-0.76,0-1.6-0.23-2.5-0.7c-0.91-0.47-1.69-1.12-2.33-1.94C57.93,63.12,56.14,64,53.91,64h-6.06   c-4.46,0-7.69-0.9-9.72-2.68c-2.02-1.79-3.03-4.86-3.03-9.2v-9.97c0-9.09,4.28-13.64,12.83-13.64h9.15V14.7   c0-1.82-0.56-3.22-1.67-4.22c-1.12-1-2.76-1.5-4.93-1.5h-4.03v2.38H37.4c-1.27,0-2.3-1.03-2.3-2.3V2.3c0-1.27,1.03-2.3,2.3-2.3   h9.05v2.38h3.15c5.1,0,8.87,1.11,11.3,3.34c2.43,2.23,3.65,5.81,3.65,10.74V55.2c0,0.88,0.34,1.54,1.01,1.98   c0.58,0.37,1.48,0.59,2.72,0.64V64z"/>
</g>
</svg>